<svg width="103" height="20" viewBox="0 0 103 20" fill="none" xmlns="http://www.w3.org/2000/svg">
<path d="M10 0L12.2451 6.90983H19.5106L13.6327 11.1803L15.8779 18.0902L10 13.8197L4.12215 18.0902L6.36729 11.1803L0.489435 6.90983H7.75486L10 0Z" fill="#FF8A1D"/>
<path d="M10 0L12.2451 6.90983H19.5106L13.6327 11.1803L15.8779 18.0902L10 13.8197L4.12215 18.0902L6.36729 11.1803L0.489435 6.90983H7.75486L10 0Z" fill="#FF8A1D"/>
<path d="M10 0L12.2451 6.90983H19.5106L13.6327 11.1803L15.8779 18.0902L10 13.8197L4.12215 18.0902L6.36729 11.1803L0.489435 6.90983H7.75486L10 0Z" fill="#FF8A1D"/>
<path d="M10 0L12.2451 6.90983H19.5106L13.6327 11.1803L15.8779 18.0902L10 13.8197L4.12215 18.0902L6.36729 11.1803L0.489435 6.90983H7.75486L10 0Z" fill="#FF8A1D"/>
<path d="M10 0L12.2451 6.90983H19.5106L13.6327 11.1803L15.8779 18.0902L10 13.8197L4.12215 18.0902L6.36729 11.1803L0.489435 6.90983H7.75486L10 0Z" fill="#FF8A1D"/>
<path d="M30 0L32.2451 6.90983H39.5106L33.6327 11.1803L35.8779 18.0902L30 13.8197L24.1221 18.0902L26.3673 11.1803L20.4894 6.90983H27.7549L30 0Z" fill="#FF8A1D"/>
<path d="M30 0L32.2451 6.90983H39.5106L33.6327 11.1803L35.8779 18.0902L30 13.8197L24.1221 18.0902L26.3673 11.1803L20.4894 6.90983H27.7549L30 0Z" fill="#FF8A1D"/>
<path d="M30 0L32.2451 6.90983H39.5106L33.6327 11.1803L35.8779 18.0902L30 13.8197L24.1221 18.0902L26.3673 11.1803L20.4894 6.90983H27.7549L30 0Z" fill="#FF8A1D"/>
<path d="M30 0L32.2451 6.90983H39.5106L33.6327 11.1803L35.8779 18.0902L30 13.8197L24.1221 18.0902L26.3673 11.1803L20.4894 6.90983H27.7549L30 0Z" fill="#FF8A1D"/>
<path d="M30 0L32.2451 6.90983H39.5106L33.6327 11.1803L35.8779 18.0902L30 13.8197L24.1221 18.0902L26.3673 11.1803L20.4894 6.90983H27.7549L30 0Z" fill="#FF8A1D"/>
<path d="M53 0L55.2451 6.90983H62.5106L56.6327 11.1803L58.8779 18.0902L53 13.8197L47.1221 18.0902L49.3673 11.1803L43.4894 6.90983H50.7549L53 0Z" fill="#FF8A1D"/>
<path d="M53 0L55.2451 6.90983H62.5106L56.6327 11.1803L58.8779 18.0902L53 13.8197L47.1221 18.0902L49.3673 11.1803L43.4894 6.90983H50.7549L53 0Z" fill="#FF8A1D"/>
<path d="M53 0L55.2451 6.90983H62.5106L56.6327 11.1803L58.8779 18.0902L53 13.8197L47.1221 18.0902L49.3673 11.1803L43.4894 6.90983H50.7549L53 0Z" fill="#FF8A1D"/>
<path d="M53 0L55.2451 6.90983H62.5106L56.6327 11.1803L58.8779 18.0902L53 13.8197L47.1221 18.0902L49.3673 11.1803L43.4894 6.90983H50.7549L53 0Z" fill="#FF8A1D"/>
<path d="M53 0L55.2451 6.90983H62.5106L56.6327 11.1803L58.8779 18.0902L53 13.8197L47.1221 18.0902L49.3673 11.1803L43.4894 6.90983H50.7549L53 0Z" fill="#FF8A1D"/>
<path d="M73 0L75.2451 6.90983H82.5106L76.6327 11.1803L78.8779 18.0902L73 13.8197L67.1221 18.0902L69.3673 11.1803L63.4894 6.90983H70.7549L73 0Z" fill="#FF8A1D"/>
<path d="M73 0L75.2451 6.90983H82.5106L76.6327 11.1803L78.8779 18.0902L73 13.8197L67.1221 18.0902L69.3673 11.1803L63.4894 6.90983H70.7549L73 0Z" fill="#FF8A1D"/>
<path d="M73 0L75.2451 6.90983H82.5106L76.6327 11.1803L78.8779 18.0902L73 13.8197L67.1221 18.0902L69.3673 11.1803L63.4894 6.90983H70.7549L73 0Z" fill="#FF8A1D"/>
<path d="M73 0L75.2451 6.90983H82.5106L76.6327 11.1803L78.8779 18.0902L73 13.8197L67.1221 18.0902L69.3673 11.1803L63.4894 6.90983H70.7549L73 0Z" fill="#FF8A1D"/>
<path d="M73 0L75.2451 6.90983H82.5106L76.6327 11.1803L78.8779 18.0902L73 13.8197L67.1221 18.0902L69.3673 11.1803L63.4894 6.90983H70.7549L73 0Z" fill="#FF8A1D"/>
<path d="M93 0L95.2451 6.90983H102.511L96.6327 11.1803L98.8779 18.0902L93 13.8197L87.1221 18.0902L89.3673 11.1803L83.4894 6.90983H90.7549L93 0Z" fill="#FF8A1D"/>
<path d="M93 0L95.2451 6.90983H102.511L96.6327 11.1803L98.8779 18.0902L93 13.8197L87.1221 18.0902L89.3673 11.1803L83.4894 6.90983H90.7549L93 0Z" fill="#FF8A1D"/>
<path d="M93 0L95.2451 6.90983H102.511L96.6327 11.1803L98.8779 18.0902L93 13.8197L87.1221 18.0902L89.3673 11.1803L83.4894 6.90983H90.7549L93 0Z" fill="#FF8A1D"/>
<path d="M93 0L95.2451 6.90983H102.511L96.6327 11.1803L98.8779 18.0902L93 13.8197L87.1221 18.0902L89.3673 11.1803L83.4894 6.90983H90.7549L93 0Z" fill="#FF8A1D"/>
<path d="M93 0L95.2451 6.90983H102.511L96.6327 11.1803L98.8779 18.0902L93 13.8197L87.1221 18.0902L89.3673 11.1803L83.4894 6.90983H90.7549L93 0Z" fill="#FF8A1D"/>
</svg>
